<svg width="80" height="80" viewBox="0 0 80 80" fill="none" xmlns="http://www.w3.org/2000/svg">
    <path d="M35.9452 34.8852H28.0268C27.666 34.8852 27.3199 35.0286 27.0648 35.2837C26.8096 35.5389 26.6663 35.8849 26.6663 36.2458C26.6663 36.6066 26.8096 36.9527 27.0648 37.2078C27.3199 37.463 27.666 37.6063 28.0268 37.6063H35.9452L34.6445 38.907C34.518 39.0335 34.4176 39.1837 34.3492 39.349C34.2807 39.5142 34.2455 39.6914 34.2455 39.8703C34.2455 40.0492 34.2807 40.2263 34.3492 40.3916C34.4176 40.5569 34.518 40.707 34.6445 40.8335C34.771 40.96 34.9212 41.0604 35.0864 41.1288C35.2517 41.1973 35.4289 41.2325 35.6078 41.2325C35.7867 41.2325 35.9638 41.1973 36.1291 41.1288C36.2943 41.0604 36.4445 40.96 36.571 40.8335L40.1955 37.2091C40.3222 37.0827 40.4227 36.9325 40.4913 36.7672C40.5599 36.6019 40.5952 36.4247 40.5952 36.2458C40.5952 36.0668 40.5599 35.8896 40.4913 35.7243C40.4227 35.559 40.3222 35.4089 40.1955 35.2825L36.571 31.658C36.3155 31.4026 35.9691 31.259 35.6078 31.259C35.2465 31.259 34.9 31.4026 34.6445 31.658C34.389 31.9135 34.2455 32.26 34.2455 32.6213C34.2455 32.9826 34.389 33.3291 34.6445 33.5846L35.9452 34.8852Z" fill="#7907E7"/>
    <path d="M24.0548 32.1265C24.1813 32.253 24.3314 32.3533 24.4967 32.4218C24.662 32.4903 24.8391 32.5255 25.018 32.5255C25.1969 32.5255 25.3741 32.4903 25.5393 32.4218C25.7046 32.3533 25.8548 32.253 25.9813 32.1265C26.1078 32 26.2081 31.8498 26.2766 31.6846C26.3451 31.5193 26.3803 31.3421 26.3803 31.1632C26.3803 30.9843 26.3451 30.8072 26.2766 30.6419C26.2081 30.4767 26.1078 30.3265 25.9813 30.2L24.6806 28.8993H32.5881C32.9489 28.8993 33.295 28.756 33.5501 28.5008C33.8053 28.2457 33.9486 27.8996 33.9486 27.5388C33.9486 27.1779 33.8053 26.8319 33.5501 26.5767C33.295 26.3216 32.9489 26.1782 32.5881 26.1782H24.6752L25.9758 24.8775C26.2313 24.6221 26.3748 24.2756 26.3748 23.9143C26.3748 23.553 26.2313 23.2065 25.9758 22.951C25.7204 22.6955 25.3739 22.552 25.0126 22.552C24.6513 22.552 24.3048 22.6955 24.0493 22.951L20.4085 26.5809C20.2818 26.7073 20.1813 26.8575 20.1127 27.0227C20.0441 27.188 20.0088 27.3652 20.0088 27.5442C20.0088 27.7232 20.0441 27.9004 20.1127 28.0656C20.1813 28.2309 20.2818 28.3811 20.4085 28.5075L24.0548 32.1265Z" fill="#7907E7"/>
    <path d="M66.6668 40.0612C66.6649 39.188 66.4436 38.3292 66.0233 37.5637C65.603 36.7983 64.9972 36.1506 64.2614 35.6803L61.9757 34.2109L59.2546 26.7986C58.9407 25.951 58.3754 25.2195 57.6342 24.702C56.8931 24.1846 56.0115 23.9059 55.1076 23.9034H47.2872V18.7333C47.2872 17.7441 46.8947 16.7954 46.1957 16.0954C45.4967 15.3954 44.5485 15.0014 43.5593 15H17.0668C16.0767 15 15.1271 15.3933 14.427 16.0935C13.7268 16.7936 13.3335 17.7432 13.3335 18.7333V56.1211C13.3349 56.9188 13.6525 57.6835 14.2166 58.2476C14.7806 58.8116 15.5453 59.1292 16.343 59.1306H19.7879C20.0956 60.5053 20.8624 61.7342 21.9619 62.6149C23.0615 63.4955 24.4282 63.9754 25.8369 63.9754C27.2456 63.9754 28.6123 63.4955 29.7119 62.6149C30.8114 61.7342 31.5782 60.5053 31.8859 59.1306H48.0383C48.3459 60.5053 49.1127 61.7342 50.2123 62.6149C51.3118 63.4955 52.6785 63.9754 54.0872 63.9754C55.496 63.9754 56.8627 63.4955 57.9622 62.6149C59.0618 61.7342 59.8285 60.5053 60.1362 59.1306H63.6519C64.4505 59.1306 65.2166 58.8137 65.7818 58.2495C66.3471 57.6852 66.6654 56.9198 66.6668 56.1211V47.4136V40.0612ZM55.0968 26.6027C55.4415 26.6015 55.7784 26.7049 56.0631 26.8992C56.3478 27.0936 56.5669 27.3697 56.6913 27.6912L59.592 35.5605C59.697 35.8348 59.8879 36.0677 60.1362 36.2245L62.8083 37.9388C63.1611 38.1684 63.4502 38.4833 63.649 38.8543C63.8478 39.2252 63.9499 39.6404 63.9457 40.0612V46.0476H47.2872V26.6027H55.0968ZM17.0668 17.7211H43.5593C43.8278 17.7211 44.0853 17.8277 44.2751 18.0176C44.4649 18.2074 44.5716 18.4649 44.5716 18.7333V46.0639H16.0546V18.7333C16.0546 18.4649 16.1612 18.2074 16.3511 18.0176C16.5409 17.8277 16.7984 17.7211 17.0668 17.7211ZM25.8505 61.2585C25.1616 61.2585 24.4882 61.0542 23.9155 60.6715C23.3427 60.2888 22.8963 59.7448 22.6326 59.1084C22.369 58.472 22.3 57.7716 22.4344 57.096C22.5688 56.4204 22.9005 55.7998 23.3877 55.3127C23.8748 54.8256 24.4954 54.4938 25.171 54.3594C25.8466 54.225 26.547 54.294 27.1834 54.5576C27.8198 54.8213 28.3638 55.2677 28.7465 55.8405C29.1292 56.4132 29.3335 57.0866 29.3335 57.7755C29.3321 58.6988 28.9646 59.5839 28.3118 60.2368C27.6589 60.8896 26.7738 61.2571 25.8505 61.2585ZM54.0954 61.2585C53.4065 61.2585 52.7331 61.0542 52.1604 60.6715C51.5876 60.2888 51.1412 59.7448 50.8775 59.1084C50.6139 58.472 50.5449 57.7716 50.6793 57.096C50.8137 56.4204 51.1455 55.7998 51.6326 55.3127C52.1197 54.8256 52.7403 54.4938 53.4159 54.3594C54.0915 54.225 54.7919 54.294 55.4283 54.5576C56.0647 54.8213 56.6087 55.2677 56.9914 55.8405C57.3741 56.4132 57.5784 57.0866 57.5784 57.7755C57.577 58.6998 57.2088 59.5857 56.5547 60.2387C55.9007 60.8917 55.0142 61.2585 54.09 61.2585H54.0954ZM63.6628 56.415H60.1362C59.8285 55.0402 59.0618 53.8113 57.9622 52.9307C56.8627 52.05 55.496 51.5702 54.0872 51.5702C52.6785 51.5702 51.3118 52.05 50.2123 52.9307C49.1127 53.8113 48.3459 55.0402 48.0383 56.415H31.8913C31.5836 55.0402 30.8169 53.8113 29.7173 52.9307C28.6178 52.05 27.2511 51.5702 25.8423 51.5702C24.4336 51.5702 23.0669 52.05 21.9674 52.9307C20.8678 53.8113 20.101 55.0402 19.7934 56.415H16.343C16.3047 56.415 16.2667 56.4073 16.2314 56.3925C16.196 56.3777 16.164 56.3559 16.1371 56.3286C16.1103 56.3012 16.0891 56.2688 16.075 56.2331C16.0608 56.1975 16.0539 56.1594 16.0546 56.1211V48.785H63.9457V56.1211C63.9457 56.1976 63.9154 56.271 63.8613 56.325C63.8072 56.3791 63.7338 56.4095 63.6573 56.4095L63.6628 56.415Z" fill="#7907E7"/>
</svg>
