<svg width="80" height="80" viewBox="0 0 80 80" fill="none" xmlns="http://www.w3.org/2000/svg">
    <path d="M61.7207 42.2889C60.6333 42.6451 59.9947 43.7309 60.2018 44.8506C60.3226 45.5631 60.3917 46.2926 60.3917 47.0391C60.3917 53.9609 54.6614 59.5934 47.6194 59.5934C42.7349 59.5934 38.4717 56.8789 36.3315 52.8921C35.7964 51.9081 34.6227 51.4331 33.5526 51.7894L33.5181 51.8063C32.1891 52.2644 31.5678 53.7743 32.2236 54.9958C35.1923 60.5265 41.1642 64.2758 47.9991 64.1231C57.354 63.9195 64.931 56.37 65.0001 47.1579C65.0001 46.106 64.9138 45.0542 64.7412 44.0532C64.4995 42.6791 63.067 41.8308 61.7207 42.2889Z" fill="url(#paint0_linear)"/>
    <path d="M35.5196 14.1437V44.6981C35.5196 46.1231 34.4495 47.141 33.086 47.141C31.688 47.141 30.6524 46.0892 30.6524 44.6981V43.7819C28.9609 45.9026 26.2166 47.141 22.8854 47.141C16.4302 47.141 11.6665 42.1702 11.6665 35.3841C11.6665 28.598 16.4302 23.5763 22.8854 23.5763C26.113 23.5763 28.8228 24.8148 30.5488 26.8337V14.1437C30.5488 12.7186 31.6189 11.6667 33.0342 11.6667C34.4495 11.6667 35.5196 12.6847 35.5196 14.1437ZM30.6696 35.3841C30.6696 31.0241 27.8563 27.9873 23.7484 27.9873C19.6751 27.9873 16.6891 31.1089 16.6891 35.3332C16.6891 39.6085 19.6406 42.7301 23.7484 42.7301C27.8563 42.7301 30.6696 39.7442 30.6696 35.3841Z" fill="#7907E7"/>
    <path d="M64.8615 28.0223C64.8615 34.5878 59.4937 39.8301 52.6588 39.8301C45.8756 39.7792 40.5596 34.5878 40.5596 28.0223C40.5596 21.4058 45.8929 16.2654 52.6588 16.2654C59.4764 16.2654 64.8615 21.4567 64.8615 28.0223ZM45.5477 28.0732C45.5477 32.2466 48.5854 35.3852 52.6588 35.3852C56.7321 35.3852 59.8043 32.2127 59.8043 28.0732C59.8043 23.8488 56.7148 20.7272 52.6933 20.6763C48.5854 20.7272 45.5477 23.8488 45.5477 28.0732Z" fill="#7907E7"/>
    <defs>
        <linearGradient id="paint0_linear" x1="37.1758" y1="60.7218" x2="65.6787" y2="45.807" gradientUnits="userSpaceOnUse">
            <stop stop-color="#4CF4CD"/>
            <stop offset="0.3678" stop-color="#47CDDB"/>
            <stop offset="1" stop-color="#3F8DF2"/>
        </linearGradient>
    </defs>
</svg>
