<svg width="54" height="47" viewBox="0 0 54 47" fill="none" xmlns="http://www.w3.org/2000/svg">
    <path d="M52.7314 38.5348H47.2119V33.2605C47.2119 32.7468 46.7929 32.3317 46.2756 32.3317H40.1042V27.0575C40.1042 26.5449 39.6852 26.1299 39.1673 26.1299H33.675V20.8538C33.675 20.3413 33.2561 19.9263 32.7381 19.9263H19.8792C19.3618 19.9263 18.9423 20.3413 18.9423 20.8538V26.1299H13.45C12.9326 26.1299 12.5131 26.5449 12.5131 27.0575V32.3317H7.69934C7.182 32.3317 6.76302 32.7468 6.76302 33.2605V38.5348H1.26957C0.752224 38.5348 0.333252 38.9498 0.333252 39.4623V45.6654C0.333252 46.1779 0.752224 46.5929 1.26957 46.5929H14.1285H26.9863H26.9869H39.8446C39.8494 46.5929 39.8529 46.5906 39.8571 46.5906C39.863 46.5906 39.8666 46.5929 39.8707 46.5929H52.7303C53.2476 46.5929 53.6666 46.1779 53.6666 45.6654V39.4623C53.6678 38.9498 53.2488 38.5348 52.7314 38.5348ZM45.3381 38.5348H39.8719H39.8452H34.353V34.1881H39.1673H45.3381V38.5348ZM26.9875 38.5348H21.4946V34.1881H26.3083H26.3089H32.4791V38.5348H26.9875ZM38.231 32.3311H33.4166H33.4155H27.2458V27.9844H32.7387H38.2316V32.3311H38.231ZM20.8161 21.7808H31.8018V26.1293H26.3083H26.3078H20.8155V21.7808H20.8161ZM14.3869 27.9844H19.8798H25.3726V32.3311H20.5589H20.5577H14.3869V27.9844ZM8.63566 34.1875H13.4506H19.6208V38.5342H14.1285H8.63507V34.1875H8.63566ZM2.20589 40.3899H7.69934H13.1928V44.7378H2.20589V40.3899ZM15.0648 40.3899H20.5571H20.5583H26.0506V44.7378H15.0648V40.3899ZM38.9089 44.7378H27.9238V40.3899H33.4161H33.4172H38.9095V44.7378H38.9089ZM51.7945 44.7378H40.8082V40.3899H46.2756H51.7945V44.7378Z" fill="#7907E7"/>
    <path d="M23.3012 15.4816L28.7011 15.4703L28.8146 15.4686C30.3131 15.4349 31.5683 14.7883 32.2593 13.6899C32.9557 12.5857 32.9873 11.172 32.3466 9.81143L31.9933 9.0603L33.2366 7.55567L33.2581 7.60055C33.4213 7.94718 33.7727 8.14855 34.1368 8.14028C34.2635 8.13673 34.3908 8.10898 34.5127 8.05347L40.3674 5.36545C41.6173 4.79265 42.163 3.32109 41.5832 2.08455C41.019 0.884628 39.4822 0.324231 38.2611 0.88581L32.4058 3.57206C32.178 3.67717 32.0017 3.86614 31.9156 4.09939C31.8295 4.33087 31.8409 4.58774 31.9473 4.81273L32.3538 5.67606L31.1087 7.17951L30.8917 6.71773C30.1493 5.13751 28.7853 4.21336 27.2444 4.24702C26.1057 4.27241 25.0113 4.83163 24.1631 5.82192L20.6724 9.89174C19.162 11.6538 19.5977 13.1177 19.8553 13.6657C20.1136 14.2114 20.9647 15.4857 23.3012 15.4816ZM39.0572 2.57822C39.3591 2.43945 39.7327 2.5794 39.8695 2.87053C40.0112 3.17287 39.8785 3.5325 39.5731 3.67304L34.5749 5.96719L34.0597 4.87237L39.0572 2.57822ZM22.1141 11.0976L25.6048 7.02775C26.1213 6.42543 26.7166 6.12544 27.2874 6.11245C28.034 6.09651 28.7399 6.5701 29.1786 7.5037L30.0489 9.35438C30.0507 9.35674 30.0507 9.3591 30.0525 9.36146L30.6341 10.598C31.3992 12.2249 30.5606 13.563 28.7728 13.6037C28.7477 13.6037 28.7226 13.6037 28.6981 13.6037L23.2976 13.6149C21.456 13.6173 20.9247 12.4859 22.1141 11.0976Z" fill="#7907E7"/>
</svg>
