<svg width="80" height="80" viewBox="0 0 80 80" fill="none" xmlns="http://www.w3.org/2000/svg">
    <path d="M23.7188 25H56.2812C58.2766 25 60 26.6327 60 28.7188V50.5782C60 52.6644 58.2766 54.2971 56.2812 54.2971H23.7188C21.6327 54.2971 20 52.6644 20 50.5782V28.7188C20 26.6327 21.7234 25 23.7188 25ZM55.5556 51.6667L44.2177 39.7846C41.5873 41.4172 38.4127 41.4172 35.7823 39.7846L24.4444 51.6667H55.5556ZM46.3039 38.1519L57.2789 49.5805V29.1723L46.3039 38.1519ZM22.7211 49.5805L33.6054 38.1519L22.7211 29.1723V49.5805ZM25.0794 27.7211L36.5079 36.9728C38.5941 38.6961 41.3152 38.6961 43.4921 36.9728L54.8299 27.7211H25.0794Z" fill="#7907E7"/>
</svg>
