<svg width="80" height="80" viewBox="0 0 80 80" fill="none" xmlns="http://www.w3.org/2000/svg">
    <path d="M58.9905 36.6045C57.6866 34.88 55.3312 34.5435 53.6908 34.4594C51.714 34.3332 49.9054 34.4174 47.8023 34.5856C47.7182 34.3332 47.6341 33.7865 47.7182 32.6508C48.0126 29.2859 48.3911 26.8043 48.6856 24.8275L48.7277 24.6592C49.0641 22.5141 47.8864 20.7055 45.8675 20.1587C43.9748 19.654 41.4932 20.3269 40.5678 22.5562C40.4416 22.8506 40.3154 23.2292 40.1472 23.6918C38.9695 26.8043 36.3197 33.9126 32.0294 36.4783V36.0998C32.0294 35.553 31.6088 35.1324 31.062 35.1324H20.9674C20.4206 35.1324 20 35.553 20 36.0998V57.1303C20 57.6771 20.4206 58.0977 20.9674 58.0977H31.062C31.6088 58.0977 32.0294 57.6771 32.0294 57.1303V56.92C35.3943 57.8454 43.47 59.8222 49.2324 59.8222C52.2608 59.8222 56.0462 59.8222 57.0978 55.0693C57.939 51.3259 59.0326 45.7738 59.7476 41.9463C60.2524 39.6329 60 37.8664 58.9905 36.6045ZM57.3081 41.5257C56.593 45.3532 55.4995 50.8212 54.6582 54.5646C54.1115 57.0041 53.0179 57.3406 49.2324 57.3406C43.6803 57.3406 35.6887 55.3217 32.5342 54.4804C32.2397 54.3963 32.0715 54.186 32.0294 53.8916V47.1619V39.7171C32.0294 39.4647 32.1556 39.2123 32.3659 39.1282C38.0021 36.5204 41.0305 28.4447 42.4606 24.5751C42.6288 24.1545 42.755 23.7759 42.8812 23.5236C43.1756 22.8506 43.8906 22.5141 44.6057 22.5141C44.816 22.5141 45.0263 22.5562 45.1945 22.5982C45.7834 22.7665 46.4143 23.1871 46.246 24.3227L46.204 24.491C45.9096 26.5099 45.4889 28.9915 45.1945 32.4826C45.0263 34.4594 45.3207 35.8054 46.0357 36.5204C46.4563 36.941 47.0452 37.1513 47.6761 37.1093C49.8212 36.899 51.5457 36.8149 53.4385 36.941C55.2471 37.0672 56.3828 37.4458 56.9295 38.1187C57.5184 38.7917 57.6446 39.9274 57.3081 41.5257Z" fill="#7907E7"/>
</svg>
