<svg width="80" height="80" viewBox="0 0 80 80" fill="none" xmlns="http://www.w3.org/2000/svg">
    <path d="M47.8746 54.0814H47.8722C43.3945 54.0791 38.2607 51.5749 33.7873 47.2125C33.7803 47.2055 33.7733 47.1984 33.764 47.1891C29.4101 42.705 26.9108 37.5612 26.9084 33.0767C26.9084 31.4245 27.7516 29.688 29.2862 28.1854C30.342 27.151 31.8976 26.1072 33.0001 26.1072C34.6982 26.1072 35.149 26.9123 35.8334 28.1292C35.9992 28.4264 36.1884 28.7611 36.4337 29.1683C36.5691 29.393 36.756 29.6762 36.9522 29.9781C38.2066 31.8925 38.996 33.2312 38.5639 34.3499C38.2252 35.2204 37.3329 35.9366 36.4687 36.627C36.1487 36.8821 35.6909 37.2496 35.4877 37.4719C35.6442 38.3448 36.7864 40.196 38.7788 42.1923C40.7689 44.1863 42.6118 45.3307 43.4877 45.4898C43.7073 45.2862 44.0717 44.8298 44.3239 44.5116C45.0153 43.6433 45.7324 42.7447 46.6036 42.4076C46.8045 42.3304 47.0241 42.2906 47.2577 42.2906C48.2527 42.2906 49.4229 43.0091 50.9645 44.0248C51.2658 44.2214 51.5485 44.4086 51.7751 44.5467C52.1791 44.7901 52.5155 44.9796 52.8098 45.1458C54.0244 45.8315 54.8279 46.2832 54.8279 47.9823C54.8279 49.0846 53.7862 50.6456 52.7537 51.7034C51.2542 53.2316 49.5211 54.0788 47.8743 54.0812L47.8746 54.0814ZM35.4299 45.5463C39.41 49.4219 44.0632 51.7388 47.8746 51.7412C50.18 51.7389 52.3732 48.741 52.4947 47.9569C52.4947 47.7978 52.4854 47.7135 52.4784 47.6738C52.3593 47.5708 51.9926 47.3648 51.6679 47.18C51.3736 47.0138 51.0068 46.8078 50.5724 46.5457C50.3085 46.3866 50.0048 46.1876 49.6871 45.977C49.0822 45.5792 47.8652 44.7788 47.3467 44.6453C47.0267 44.87 46.466 45.5721 46.1507 45.97C45.3496 46.9763 44.6582 47.8445 43.6818 47.8469C41.304 47.8445 38.0643 44.7834 37.1276 43.8449C36.191 42.9065 33.1358 39.6604 33.1334 37.2851C33.1334 36.3022 34.0047 35.6048 35.0114 34.7997C35.4061 34.4838 36.1022 33.9268 36.3287 33.6085C36.1933 33.0889 35.3968 31.872 34.9997 31.2658C34.7895 30.9452 34.5932 30.6432 34.4321 30.3811C34.1705 29.9435 33.9626 29.576 33.7967 29.2812C33.6146 28.9559 33.409 28.5885 33.3039 28.4691C33.2642 28.4621 33.1801 28.4527 33.0213 28.4527C32.2388 28.5721 29.2467 30.7696 29.2467 33.0819C29.249 36.8966 31.5591 41.5565 35.4295 45.5466L35.4299 45.5463Z" fill="#7907E7"/>
    <path d="M17.8343 64.7698C17.54 64.7698 17.2503 64.6574 17.0284 64.4468C16.6921 64.1238 16.5776 63.6323 16.7388 63.1947L20.5905 52.7616C17.7688 48.3384 16.4491 43.0773 16.8649 37.8769C17.304 32.3959 19.6631 27.2563 23.51 23.4021C27.8452 19.0585 33.6496 16.6667 39.8534 16.6667C46.2814 16.6667 52.3543 19.206 56.9562 23.8167C66.2897 33.1708 66.4769 48.2029 57.3696 57.3281C53.0344 61.6718 47.2324 64.0635 41.0286 64.0635C36.5323 64.0635 32.1525 62.8044 28.322 60.4149L18.2901 64.679C18.1452 64.7399 17.9887 64.7703 17.8346 64.7703L17.8343 64.7698ZM28.4343 57.9242C28.6585 57.9242 28.8827 57.9897 29.0766 58.1161C32.648 60.4728 36.7801 61.7178 41.0286 61.7178C46.6087 61.7178 51.8247 59.5694 55.718 55.6679C63.9142 47.4557 63.7295 33.9077 55.3046 25.466C51.1446 21.2979 45.6577 19.0021 39.8534 19.0021C34.2732 19.0021 29.0548 21.1505 25.1615 25.052C18.0961 32.1313 17.1262 43.4469 22.8584 51.9539C23.0687 52.2675 23.1154 52.6607 22.9869 53.014L19.8687 61.4605L27.9782 58.0132C28.123 57.957 28.2795 57.9243 28.4337 57.9243L28.4343 57.9242Z" fill="#7907E7"/>
</svg>
