<svg width="59" height="63" viewBox="0 0 59 63" fill="none" xmlns="http://www.w3.org/2000/svg">
    <path d="M15.1995 37.9665V30.3411C15.1995 29.8859 14.8341 29.5205 14.379 29.5205H8.1062C7.65105 29.5205 7.28564 29.8859 7.28564 30.3411V37.9665C7.28564 38.4217 7.65105 38.7871 8.1062 38.7871H14.379C14.8309 38.7871 15.1995 38.4217 15.1995 37.9665ZM13.5584 37.146H8.92676V31.1616H13.5584V37.146Z" fill="#616161"/>
    <path d="M25.9139 37.9665V30.3411C25.9139 29.8859 25.5485 29.5205 25.0933 29.5205H18.8206C18.3654 29.5205 18 29.8859 18 30.3411V37.9665C18 38.4217 18.3654 38.7871 18.8206 38.7871H25.0933C25.5485 38.7871 25.9139 38.4217 25.9139 37.9665ZM24.2728 37.146H19.6411V31.1616H24.2728V37.146Z" fill="#616161"/>
    <path d="M15.1995 53.0124V45.387C15.1995 44.9318 14.8341 44.5664 14.379 44.5664H8.1062C7.65105 44.5664 7.28564 44.9318 7.28564 45.387V53.0124C7.28564 53.4676 7.65105 53.833 8.1062 53.833H14.379C14.8309 53.833 15.1995 53.4644 15.1995 53.0124ZM13.5584 52.1919H8.92676V46.2075H13.5584V52.1919Z" fill="#616161"/>
    <path d="M25.9139 53.0124V45.387C25.9139 44.9318 25.5485 44.5664 25.0933 44.5664H18.8206C18.3654 44.5664 18 44.9318 18 45.387V53.0124C18 53.4676 18.3654 53.833 18.8206 53.833H25.0933C25.5485 53.833 25.9139 53.4644 25.9139 53.0124ZM24.2728 52.1919H19.6411V46.2075H24.2728V52.1919Z" fill="#616161"/>
    <path d="M15.1995 23.1208V15.4954C15.1995 15.0402 14.8341 14.6748 14.379 14.6748H8.1062C7.65105 14.6748 7.28564 15.0402 7.28564 15.4954V23.1208C7.28564 23.576 7.65105 23.9414 8.1062 23.9414H14.379C14.8309 23.9414 15.1995 23.5728 15.1995 23.1208ZM13.5584 22.3003H8.92676V16.3159H13.5584V22.3003Z" fill="#616161"/>
    <path d="M25.9139 23.1208V15.4954C25.9139 15.0402 25.5485 14.6748 25.0933 14.6748H18.8206C18.3654 14.6748 18 15.0402 18 15.4954V23.1208C18 23.576 18.3654 23.9414 18.8206 23.9414H25.0933C25.5485 23.9414 25.9139 23.5728 25.9139 23.1208ZM24.2728 22.3003H19.6411V16.3159H24.2728V22.3003Z" fill="#616161"/>
    <path d="M42.2718 37.9665V30.3411C42.2718 29.8859 41.9064 29.5205 41.4512 29.5205H35.1785C34.7233 29.5205 34.3579 29.8859 34.3579 30.3411V37.9665C34.3579 38.4217 34.7233 38.7871 35.1785 38.7871H41.4512C41.9032 38.7871 42.2718 38.4217 42.2718 37.9665ZM40.6307 37.146H35.999V31.1616H40.6307V37.146Z" fill="#616161"/>
    <path d="M52.1656 38.7871C52.6207 38.7871 52.9862 38.4217 52.9862 37.9665V30.3411C52.9862 29.8859 52.6207 29.5205 52.1656 29.5205H45.8928C45.4377 29.5205 45.0723 29.8859 45.0723 30.3411V37.9665C45.0723 38.4217 45.4377 38.7871 45.8928 38.7871H52.1656ZM51.345 37.146H46.7134V31.1616H51.345V37.146Z" fill="#616161"/>
    <path d="M58.9484 23.8474V18.9017C58.9484 18.4465 58.583 18.0811 58.1278 18.0811H32.2162V11.0102H32.6521C33.1073 11.0102 33.4727 10.6448 33.4727 10.1896V5.24387C33.4727 4.78871 33.1073 4.42331 32.6521 4.42331H28.9404V0.820559C28.9404 0.365403 28.575 0 28.1198 0H23.6965C23.2414 0 22.876 0.365403 22.876 0.820559V4.42331H21.6419V0.820559C21.6419 0.365403 21.2765 0 20.8214 0H16.3981C15.9429 0 15.5775 0.365403 15.5775 0.820559V4.42331H0.820559C0.365403 4.42331 0 4.78871 0 5.24387V10.1896C0 10.6448 0.365403 11.0102 0.820559 11.0102H1.25648V62.1794C1.25648 62.6346 1.62188 63 2.07704 63H56.4777C56.9328 63 57.2982 62.6346 57.2982 62.1794V24.6676H58.1284C58.5835 24.6676 58.9489 24.299 58.9489 23.847L58.9484 23.8474ZM55.6565 61.3593H48.8388V44.8841C48.8388 44.4289 48.4734 44.0635 48.0183 44.0635H39.7355C39.2804 44.0635 38.915 44.4289 38.915 44.8841V61.356H32.2159V24.668H55.656L55.6565 61.3593ZM40.5566 45.7047H47.2012V61.356L40.5566 61.3592V45.7047ZM20.0008 4.42314H17.2186V1.64095H20.0008V4.42314ZM27.296 4.42314H24.5138V1.64095H27.296V4.42314ZM31.8315 9.3689H1.64067V6.06426H31.8315V9.3689ZM30.5751 11.01V61.3587H2.8976V11.01H30.5751ZM57.3072 23.0271H32.2162V19.7225H57.3072V23.0271Z" fill="#616161"/>
</svg>
