<svg width="100" height="100" viewBox="0 0 100 100" fill="none" xmlns="http://www.w3.org/2000/svg">
    <path d="M50 100C77.6142 100 100 77.6142 100 50C100 22.3858 77.6142 0 50 0C22.3858 0 0 22.3858 0 50C0 77.6142 22.3858 100 50 100Z" fill="url(#paint0_linear)"/>
    <path fill-rule="evenodd" clip-rule="evenodd" d="M17.4999 36C16.6452 36 15.9523 36.6929 15.9523 37.5476V40.9527H12.5476C11.6929 40.9527 11 41.6456 11 42.5003C11 43.355 11.6929 44.0479 12.5476 44.0479H15.9523V47.4524C15.9523 48.3071 16.6452 49 17.4999 49C18.3546 49 19.0475 48.3071 19.0475 47.4524V44.0479H22.4524C23.3071 44.0479 24 43.355 24 42.5003C24 41.6456 23.3071 40.9527 22.4524 40.9527H19.0475V37.5476C19.0475 36.6929 18.3546 36 17.4999 36Z" fill="#7907E7"/>
    <path d="M76 81.5C76 83.9853 73.9853 86 71.5 86C69.0147 86 67 83.9853 67 81.5C67 79.0147 69.0147 77 71.5 77C73.9853 77 76 79.0147 76 81.5Z" fill="#5DC6FF"/>
    <path d="M56.7 89.4C59.2957 89.4 61.4 87.2957 61.4 84.7C61.4 82.1043 59.2957 80 56.7 80C54.1043 80 52 82.1043 52 84.7C52 87.2957 54.1043 89.4 56.7 89.4Z" fill="#7907E7"/>
    <path d="M56.55 15.1C57.9583 15.1 59.1 13.9583 59.1 12.55C59.1 11.1417 57.9583 10 56.55 10C55.1417 10 54 11.1417 54 12.55C54 13.9583 55.1417 15.1 56.55 15.1Z" fill="#000A79"/>
    <path d="M88.7744 56.1371C88.4744 55.6371 87.8744 55.5371 87.3744 55.7371C85.2744 56.9371 83.6744 55.6371 80.8744 53.2371C78.8744 51.5371 76.5744 49.5371 73.6744 48.9371C70.5744 48.3371 67.8744 49.7371 66.1744 51.6371C65.6744 51.5371 65.1744 51.5371 64.6744 51.5371C64.6744 51.5371 64.6744 51.5371 64.5744 51.5371C63.3744 51.5371 62.0744 51.7371 60.8744 52.1371C59.9744 50.3371 58.6744 48.5371 57.0744 46.8371C58.9744 45.9371 60.2744 43.9371 60.2744 41.7371C60.2744 38.6371 57.7744 36.0371 54.5744 36.0371C51.8744 36.0371 49.5744 37.9371 49.0744 40.4371C48.0744 39.9371 47.0744 39.5371 46.1744 39.2371C46.5744 38.6371 47.0744 37.9371 47.6744 37.2371C49.1744 35.6371 49.6744 33.7371 49.0744 31.9371C48.9744 31.5371 48.7744 31.1371 48.4744 30.7371C49.4744 28.5371 49.2744 26.1371 48.5744 24.4371C49.4744 23.2371 50.2744 21.8371 50.6744 20.1371C50.7744 19.6371 50.4744 19.0371 49.9744 18.9371C49.4744 18.8371 48.8744 19.1371 48.7744 19.6371C48.4744 20.7371 48.0744 21.7371 47.4744 22.5371C46.7744 21.6371 45.7744 21.0371 44.8744 20.9371C41.7744 20.6371 40.2744 21.9371 39.8744 23.3371C39.4744 24.6371 40.0744 26.0371 41.2744 26.7371C42.4744 27.4371 43.9744 27.4371 45.4744 26.8371C45.9744 26.6371 46.4744 26.3371 46.9744 25.9371C47.1744 26.8371 47.2744 27.9371 46.9744 29.0371C46.3744 28.6371 45.6744 28.3371 44.9744 28.1371C43.3744 27.8371 41.8744 28.2371 40.8744 29.4371C40.1744 30.2371 39.9744 31.2371 40.2744 32.2371C40.6744 33.3371 41.6744 34.2371 42.8744 34.4371C43.7744 34.6371 45.4744 34.5371 47.1744 32.6371C47.4744 33.7371 47.0744 34.8371 46.1744 35.8371C45.2744 36.8371 44.5744 37.7371 44.0744 38.6371C43.2744 38.5371 42.5744 38.4371 41.8744 38.4371C39.7744 38.4371 37.9744 39.1371 36.6744 40.3371C36.0744 40.9371 35.5744 41.7371 35.2744 42.6371L21.1744 77.2371C20.8744 77.9371 20.9744 78.7371 21.3744 79.4371C21.7744 80.1371 22.5744 80.4371 23.2744 80.4371C23.5744 80.4371 23.8744 80.3371 24.1744 80.2371L45.5744 71.4371L58.6744 66.0371C59.5744 65.7371 60.3744 65.2371 60.9744 64.6371C63.3744 62.2371 63.4744 58.2371 61.6744 53.9371C62.5744 53.6371 63.5744 53.5371 64.4744 53.5371C64.5744 53.5371 64.6744 53.5371 64.7744 53.5371C63.3744 56.2371 63.6744 59.1371 65.3744 61.1371C66.3744 62.2371 67.5744 62.6371 68.6744 62.6371C69.6744 62.6371 70.6744 62.2371 71.3744 61.6371C72.9744 60.2371 73.7744 57.5371 71.5744 54.7371C70.6744 53.6371 69.5744 52.7371 68.2744 52.2371C69.5744 51.1371 71.2744 50.5371 73.1744 50.9371C75.5744 51.4371 77.5744 53.1371 79.4744 54.7371C82.1744 57.0371 84.8744 59.3371 88.2744 57.4371C88.8744 57.2371 89.0744 56.6371 88.7744 56.1371ZM44.7744 25.0371C44.1744 25.3371 43.2744 25.5371 42.3744 25.0371C41.9744 24.8371 41.7744 24.3371 41.8744 23.9371C42.0744 23.4371 42.6744 22.9371 44.1744 22.9371C44.3744 22.9371 44.5744 22.9371 44.7744 22.9371C45.1744 22.9371 45.7744 23.3371 46.2744 24.0371C45.7744 24.5371 45.2744 24.8371 44.7744 25.0371ZM45.9744 31.3371C45.1744 32.3371 44.2744 32.8371 43.4744 32.6371C42.9744 32.5371 42.5744 32.2371 42.3744 31.7371C42.2744 31.4371 42.3744 31.1371 42.5744 30.9371C43.0744 30.3371 43.6744 30.2371 44.1744 30.2371C44.3744 30.2371 44.5744 30.2371 44.7744 30.3371C45.2744 30.4371 45.8744 30.7371 46.2744 31.1371C46.0744 31.1371 45.9744 31.2371 45.9744 31.3371ZM54.6744 38.0371C56.6744 38.0371 58.3744 39.6371 58.3744 41.7371C58.3744 43.5371 56.9744 45.1371 55.1744 45.3371C54.9744 45.3371 54.8744 45.4371 54.6744 45.4371C54.4744 45.4371 54.1744 45.4371 53.9744 45.3371C53.8744 45.3371 53.8744 45.3371 53.7744 45.3371C53.5744 45.3371 53.4744 45.2371 53.2744 45.1371C53.1744 45.1371 53.1744 45.0371 53.0744 45.0371C52.9744 44.9371 52.7744 44.9371 52.6744 44.8371C52.5744 44.7371 52.4744 44.7371 52.4744 44.6371C52.3744 44.5371 52.2744 44.5371 52.1744 44.4371C52.0744 44.3371 51.9744 44.2371 51.8744 44.1371C51.8744 44.0371 51.7744 44.0371 51.7744 43.9371C51.6744 43.7371 51.5744 43.6371 51.4744 43.4371C51.2744 43.0371 51.1744 42.6371 51.0744 42.1371C51.0744 42.0371 51.0744 41.9371 51.0744 41.8371C50.9744 39.7371 52.6744 38.0371 54.6744 38.0371ZM43.1744 60.6371C43.2744 60.7371 43.3744 60.8371 43.4744 60.8371C43.8744 61.1371 44.2744 61.5371 44.6744 61.8371C44.7744 61.9371 44.7744 61.9371 44.8744 62.0371C45.2744 62.3371 45.5744 62.5371 45.9744 62.8371C46.0744 62.9371 46.1744 62.9371 46.1744 63.0371C46.5744 63.3371 46.9744 63.5371 47.3744 63.8371C47.4744 63.9371 47.5744 63.9371 47.6744 64.0371C48.0744 64.2371 48.4744 64.5371 48.8744 64.7371H48.9744C49.3744 64.9371 49.7744 65.1371 50.2744 65.3371C50.2744 65.3371 50.3744 65.3371 50.3744 65.4371C41.5744 64.4371 34.7744 59.6371 32.7744 54.6371L33.7744 52.1371C35.0744 54.0371 36.9744 55.5371 39.3744 56.7371C40.1744 57.7371 40.9744 58.7371 41.9744 59.7371C42.3744 59.9371 42.7744 60.3371 43.1744 60.6371ZM45.1744 69.5371C41.0744 69.0371 31.9744 67.2371 29.8744 61.4371L31.6744 56.9371C35.0744 62.8371 42.8744 66.4371 50.5744 67.3371L45.1744 69.5371ZM37.6744 72.6371C33.9744 72.3371 29.3744 70.9371 27.7744 66.5371L28.8744 63.9371C31.4744 68.1371 36.9744 70.0371 41.6744 71.0371L37.6744 72.6371ZM30.9744 75.3371C27.8744 75.3371 25.6744 74.0371 25.2744 72.6371L26.7744 69.0371C28.2744 71.5371 30.7744 73.1371 34.1744 74.0371L30.9744 75.3371ZM36.7744 52.5371C35.8744 51.7371 35.2744 50.8371 34.6744 49.7371L35.2744 48.3371C35.5744 49.7371 36.0744 51.1371 36.7744 52.5371ZM23.4744 78.4371C23.2744 78.5371 23.1744 78.4371 23.0744 78.3371C22.9744 78.2371 23.0744 78.0371 23.0744 78.0371L24.3744 74.9371C25.1744 75.7371 26.1744 76.4371 27.4744 76.8371L23.4744 78.4371ZM59.6744 63.2371C59.2744 63.6371 58.6744 64.0371 58.0744 64.2371C57.4744 64.4371 56.6744 64.5371 55.8744 64.5371C52.5744 64.5371 48.4744 62.6371 44.8744 59.5371C44.7744 59.4371 44.5744 59.3371 44.4744 59.1371C44.0744 58.8371 43.7744 58.4371 43.3744 58.1371C43.0744 57.8371 42.6744 57.4371 42.3744 57.1371C42.2744 57.0371 42.1744 56.8371 42.0744 56.7371C41.8744 56.5371 41.6744 56.3371 41.4744 56.0371C41.3744 55.8371 41.2744 55.7371 41.0744 55.5371C40.8744 55.3371 40.7744 55.1371 40.5744 54.9371C40.4744 54.7371 40.3744 54.6371 40.2744 54.4371C40.1744 54.2371 39.9744 54.0371 39.8744 53.8371C39.7744 53.6371 39.6744 53.5371 39.5744 53.3371C39.3744 53.1371 39.2744 52.8371 39.1744 52.6371C39.0744 52.5371 39.0744 52.4371 38.9744 52.3371C38.7744 51.9371 38.5744 51.6371 38.3744 51.2371C38.3744 51.1371 38.2744 51.0371 38.2744 51.0371C38.1744 50.7371 37.9744 50.4371 37.8744 50.1371C37.8744 50.0371 37.7744 49.9371 37.7744 49.8371C37.6744 49.5371 37.5744 49.3371 37.4744 49.0371C37.4744 48.9371 37.3744 48.8371 37.3744 48.7371C37.2744 48.4371 37.1744 48.1371 37.1744 47.9371C37.1744 47.8371 37.1744 47.8371 37.0744 47.7371C36.9744 47.4371 36.9744 47.1371 36.8744 46.8371V46.7371C36.7744 46.0371 36.7744 45.4371 36.8744 44.8371C36.8744 44.7371 36.8744 44.7371 36.8744 44.7371C36.8744 44.5371 36.9744 44.2371 36.9744 44.0371C36.9744 43.9371 37.0744 43.8371 37.0744 43.7371C37.2744 42.9371 37.6744 42.3371 38.1744 41.8371C39.0744 40.9371 40.2744 40.5371 41.8744 40.5371C42.2744 40.5371 42.6744 40.5371 43.0744 40.6371C42.1744 42.6371 42.0744 44.0371 42.0744 44.4371C42.0744 45.0371 42.4744 45.4371 43.0744 45.4371C43.5744 45.4371 44.0744 45.0371 44.0744 44.4371C44.0744 44.2371 44.1744 42.8371 45.0744 40.9371C46.3744 41.3371 47.6744 41.8371 48.9744 42.6371C49.1744 43.6371 49.5744 44.5371 50.1744 45.3371C50.1744 45.3371 50.1744 45.3371 50.2744 45.4371C50.4744 45.6371 50.5744 45.8371 50.7744 45.9371C50.8744 45.9371 50.8744 46.0371 50.9744 46.0371C51.1744 46.2371 51.3744 46.3371 51.5744 46.4371C51.6744 46.4371 51.7744 46.5371 51.7744 46.5371C51.9744 46.6371 52.1744 46.7371 52.4744 46.8371C52.5744 46.8371 52.6744 46.9371 52.6744 46.9371C52.9744 47.0371 53.1744 47.1371 53.4744 47.1371C53.5744 47.1371 53.5744 47.1371 53.6744 47.1371C53.9744 47.1371 54.2744 47.2371 54.5744 47.2371C54.6744 47.2371 54.7744 47.2371 54.8744 47.2371C56.5744 48.9371 57.8744 50.8371 58.8744 52.7371C56.3744 53.8371 54.0744 55.6371 52.2744 58.0371C51.9744 58.4371 51.9744 59.1371 52.4744 59.4371C52.8744 59.7371 53.5744 59.7371 53.8744 59.2371C55.5744 57.1371 57.5744 55.5371 59.7744 54.5371C61.3744 58.2371 61.4744 61.5371 59.6744 63.2371ZM70.1744 56.0371C71.6744 57.9371 71.1744 59.5371 70.2744 60.2371C69.4744 60.9371 68.0744 61.1371 66.9744 59.8371C65.4744 58.1371 65.8744 55.8371 66.7744 54.2371C66.8744 54.1371 66.8744 54.0371 66.9744 53.9371C68.2744 54.3371 69.3744 55.0371 70.1744 56.0371Z" fill="#7907E7"/>
    <path d="M57.5 25.9375L60.9 27.7375L61.3 31.5375C61.3 31.9375 61.6 32.2375 61.9 32.3375C62 32.3375 62.1 32.4375 62.2 32.4375C62.5 32.4375 62.7 32.3375 62.9 32.1375L65.7 29.5375L69.5 30.3375C69.9 30.4375 70.3 30.2375 70.5 29.9375C70.7 29.6375 70.8 29.2375 70.6 28.9375L69 25.4375L70.9 22.1375C71.1 21.8375 71.1 21.4375 70.9 21.0375C70.7 20.7375 70.3 20.5375 69.9 20.6375L66.1 21.2375L63.5 18.3375C63.2 18.0375 62.9 17.9375 62.5 18.0375C62.1 18.1375 61.9 18.4375 61.8 18.8375L61.1 22.6375L57.6 24.2375C57.3 24.4375 57 24.7375 57 25.1375C57 25.5375 57.2 25.7375 57.5 25.9375ZM62.4 24.2375C62.7 24.1375 62.9 23.8375 63 23.5375L63.4 21.2375L65 22.9375C65.2 23.1375 65.5 23.3375 65.9 23.2375L68.2 22.9375L67 24.9375C66.8 25.2375 66.8 25.5375 67 25.8375L68 27.9375L65.7 27.5375C65.4 27.4375 65 27.5375 64.8 27.8375L63.1 29.4375L62.9 27.1375C62.9 26.8375 62.7 26.5375 62.4 26.3375L60.3 25.2375L62.4 24.2375Z" fill="#5DC6FF"/>
    <path d="M79.5 33C81.4 33 83 31.4 83 29.5C83 27.6 81.4 26 79.5 26C77.6 26 76 27.6 76 29.5C76 31.4 77.5 33 79.5 33ZM79.5 28C80.3 28 81 28.7 81 29.5C81 30.3 80.3 31 79.5 31C78.7 31 78 30.3 78 29.5C78 28.7 78.6 28 79.5 28Z" fill="white"/>
    <path d="M67.109 36.809C66.709 36.709 66.309 36.809 66.109 37.009C65.809 37.309 65.709 37.709 65.909 38.009L66.709 40.409L65.209 42.409C65.009 42.709 64.909 43.109 65.109 43.509C65.309 43.809 65.609 44.009 66.009 44.109H68.509L69.909 46.209C70.109 46.509 70.409 46.609 70.709 46.609H70.809C71.209 46.509 71.509 46.309 71.609 45.909L72.409 43.509L74.809 42.809C75.209 42.709 75.409 42.409 75.509 42.009C75.609 41.609 75.409 41.209 75.109 41.009L73.109 39.509L73.209 37.009C73.209 36.609 73.009 36.309 72.709 36.109C72.409 35.909 72.009 36.009 71.609 36.209L69.609 37.709L67.109 36.809ZM70.209 39.509L71.009 38.909V39.909C71.009 40.209 71.109 40.509 71.409 40.709L72.209 41.309L71.209 41.609C70.909 41.709 70.609 41.909 70.509 42.309L70.209 43.309L69.609 42.509C69.409 42.209 69.109 42.109 68.809 42.109H67.809L68.409 41.309C68.609 41.009 68.709 40.709 68.609 40.409L68.309 39.409L69.309 39.709C69.609 39.809 70.009 39.709 70.209 39.509Z" fill="#3F8DF2"/>
    <path d="M55.4 51.7C55.4 50.2 54.2 49 52.7 49C51.2 49 50 50.2 50 51.7C50 53.2 51.2 54.4 52.7 54.4C54.2 54.4 55.4 53.1 55.4 51.7ZM52 51.7C52 51.3 52.3 51 52.7 51C53.1 51 53.4 51.3 53.4 51.7C53.4 52.1 53.1 52.4 52.7 52.4C52.3 52.4 52 52 52 51.7Z" fill="white"/>
    <defs>
        <linearGradient id="paint0_linear" x1="50" y1="100" x2="50" y2="0" gradientUnits="userSpaceOnUse">
            <stop stop-color="#4CF4CD"/>
            <stop offset="1" stop-color="#86FFEA"/>
        </linearGradient>
    </defs>
</svg>
