<svg width="48" height="48" viewBox="0 0 48 48" fill="none" xmlns="http://www.w3.org/2000/svg">
    <path d="M37.0324 25.3739C36.38 25.5876 35.9968 26.2391 36.1211 26.9109C36.1936 27.3384 36.235 27.7761 36.235 28.224C36.235 32.3771 32.7969 35.7566 28.5716 35.7566C25.6409 35.7566 23.083 34.1279 21.7989 31.7358C21.4778 31.1454 20.7736 30.8604 20.1316 31.0742L20.1109 31.0843C19.3135 31.3592 18.9407 32.2651 19.3342 32.998C21.1154 36.3164 24.6985 38.566 28.7995 38.4744C34.4124 38.3522 38.9586 33.8225 39 28.2953C39 27.6642 38.9483 27.033 38.8447 26.4325C38.6997 25.608 37.8402 25.099 37.0324 25.3739Z" fill="url(#paint0_linear)"/>
    <path d="M21.3119 8.48615V26.8188C21.3119 27.6738 20.6698 28.2846 19.8517 28.2846C19.0129 28.2846 18.3915 27.6535 18.3915 26.8188V26.2691C17.3766 27.5415 15.73 28.2846 13.7314 28.2846C9.85823 28.2846 7 25.3021 7 21.2304C7 17.1588 9.85823 14.1458 13.7314 14.1458C15.6679 14.1458 17.2938 14.8888 18.3294 16.1002V8.48615C18.3294 7.63111 18.9714 7 19.8206 7C20.6698 7 21.3119 7.61075 21.3119 8.48615ZM18.4019 21.2304C18.4019 18.6144 16.7139 16.7923 14.2491 16.7923C11.8051 16.7923 10.0136 18.6653 10.0136 21.1999C10.0136 23.765 11.7844 25.638 14.2491 25.638C16.7139 25.638 18.4019 23.8465 18.4019 21.2304Z" fill="#7907E7"/>
    <path d="M38.9166 16.8129C38.9166 20.7523 35.6959 23.8976 31.595 23.8976C27.5251 23.8671 24.3354 20.7523 24.3354 16.8129C24.3354 12.8431 27.5354 9.75879 31.595 9.75879C35.6855 9.75879 38.9166 12.8736 38.9166 16.8129ZM27.3283 16.8435C27.3283 19.3475 29.151 21.2307 31.595 21.2307C34.039 21.2307 35.8823 19.3272 35.8823 16.8435C35.8823 14.3089 34.0286 12.4359 31.6157 12.4054C29.151 12.4359 27.3283 14.3089 27.3283 16.8435Z" fill="#7907E7"/>
    <defs>
        <linearGradient id="paint0_linear" x1="22.3055" y1="36.4336" x2="39.4072" y2="27.4847" gradientUnits="userSpaceOnUse">
            <stop stop-color="#4CF4CD"/>
            <stop offset="0.3678" stop-color="#47CDDB"/>
            <stop offset="1" stop-color="#3F8DF2"/>
        </linearGradient>
    </defs>
</svg>
