<svg width="450" height="114" viewBox="0 0 486 150" fill="none" xmlns="http://www.w3.org/2000/svg">
    <g clip-path="url(#clip0)">
        <path d="M394.356 87.5647C391.3 88.5834 389.505 91.6882 390.087 94.89C390.427 96.9276 390.621 99.0136 390.621 101.148C390.621 120.941 374.515 137.047 354.722 137.047C340.993 137.047 329.01 129.285 322.995 117.885C321.491 115.071 318.192 113.713 315.184 114.732L315.087 114.78C311.352 116.09 309.605 120.408 311.449 123.9C319.793 139.715 336.578 150.437 355.789 150C382.083 149.418 403.379 127.83 403.574 101.488C403.574 98.4799 403.331 95.4722 402.846 92.61C402.167 88.6805 398.14 86.2548 394.356 87.5647Z" fill="url(#paint0_linear)"/>
        <path d="M0 67.6746C0 48.9004 14.9903 34.0556 34.1526 34.0556C45.456 34.0556 55.1585 39.4405 60.1552 47.2025C61.2225 48.8034 61.4651 49.8221 61.4651 50.8894C61.4651 54.4308 58.6999 57.196 55.304 57.196C53.4605 57.196 51.9081 56.6624 50.4528 54.9644C46.6203 50.2587 41.381 46.8144 34.2982 46.8144C22.7523 46.8144 14.0686 55.7406 14.0686 67.7232C14.0686 79.9483 22.6067 88.729 34.2982 88.729C41.381 88.729 46.5233 85.3331 50.4528 80.7244C52.0537 78.881 53.4605 78.4929 55.304 78.4929C58.6999 78.4929 61.4651 81.2581 61.4651 84.6539C61.4651 85.8182 61.2225 86.8855 60.3008 88.1953C54.9159 96.1999 45.6986 101.488 34.1526 101.488C14.9903 101.439 0 86.5944 0 67.6746Z" fill="#7907E6"/>
        <path d="M75.3877 94.3564V7.08279C75.3877 3.00776 78.2984 0 82.3735 0C86.303 0 89.2137 3.00776 89.2137 7.08279V94.3079C89.2137 98.3829 86.303 101.391 82.3735 101.391C78.3955 101.439 75.3877 98.4314 75.3877 94.3564Z" fill="#7907E6"/>
        <path d="M159.121 60.9799V94.5019C159.121 98.577 156.21 101.488 152.281 101.488C148.351 101.488 145.44 98.48 145.44 94.5019V93.7257C140.686 98.7225 133.894 101.488 125.599 101.488C112.209 101.488 103.138 94.0168 103.138 82.8105C103.138 71.5071 112.355 64.4243 126.909 64.4243H145.149V60.1552C145.149 51.3745 140.153 46.3777 131.372 46.3777C125.987 46.3777 121.136 48.3668 117.061 52.4418C115.363 53.8972 113.907 54.5278 112.355 54.5278C109.056 54.5278 106.291 51.7626 106.291 48.7548C106.291 46.7658 107.213 44.9224 109.056 43.1274C114.587 37.3545 123.125 34.0556 132.585 34.0556C149.273 34.0071 159.121 44.0006 159.121 60.9799ZM145.198 75.5336V74.3693H128.655C121.184 74.3693 117.206 77.1345 117.206 82.2283C117.206 87.4677 121.669 90.7665 128.51 90.7665C137.872 90.7665 145.198 84.0718 145.198 75.5336Z" fill="#7907E6"/>
        <path d="M212.096 41.1384C212.096 44.9709 209.33 47.5906 205.401 47.8331C194.874 48.0757 187.645 55.207 187.645 65.5886V94.3564C187.645 98.577 184.735 101.439 180.805 101.439C176.876 101.439 173.819 98.4314 173.819 94.3564V41.1384C173.819 37.0634 176.73 34.0556 180.805 34.0556C184.638 34.0556 187.5 37.0634 187.5 41.1384V43.1274C191.817 37.9851 198.27 34.8318 205.498 34.8318C209.33 34.8318 212.096 37.4515 212.096 41.1384Z" fill="#7907E6"/>
        <path d="M241.398 11.4489C241.398 16.4457 237.177 20.3752 232.18 20.3752C227.038 20.3752 222.963 16.4457 222.963 11.4489C222.963 6.45213 227.038 2.52264 232.18 2.52264C237.225 2.47413 241.398 6.45213 241.398 11.4489ZM225.243 94.3564V41.1384C225.243 37.0634 228.154 34.0556 232.229 34.0556C236.158 34.0556 239.069 37.0634 239.069 41.1384V94.3564C239.069 98.4314 236.061 101.439 232.083 101.439C228.105 101.439 225.243 98.4314 225.243 94.3564Z" fill="#7907E6"/>
        <path d="M320.715 7.08279V94.4534C320.715 98.5285 317.707 101.439 313.875 101.439C309.945 101.439 307.034 98.4314 307.034 94.4534V91.8338C302.28 97.8978 294.567 101.439 285.204 101.439C267.06 101.439 253.671 87.2251 253.671 67.8202C253.671 48.4153 267.06 34.0556 285.204 34.0556C294.276 34.0556 301.892 37.597 306.743 43.37V7.08279C306.743 3.00776 309.751 0 313.729 0C317.707 0 320.715 2.91074 320.715 7.08279ZM307.083 67.8202C307.083 55.3525 299.175 46.6688 287.629 46.6688C276.181 46.6688 267.788 55.5951 267.788 67.6746C267.788 79.8997 276.084 88.826 287.629 88.826C299.175 88.826 307.083 80.2878 307.083 67.8202Z" fill="#7907E6"/>
        <path d="M403.186 46.7659C403.186 65.5401 388.099 80.5304 368.888 80.5304C349.823 80.3849 334.881 65.5401 334.881 46.7659C334.881 27.8461 349.871 13.1468 368.888 13.1468C388.05 13.1468 403.186 27.9916 403.186 46.7659ZM348.901 46.9114C348.901 58.8454 357.439 67.8202 368.888 67.8202C380.337 67.8202 388.972 58.7484 388.972 46.9114C388.972 34.8318 380.288 25.9056 368.985 25.76C357.439 25.9056 348.901 34.8318 348.901 46.9114Z" fill="#7907E6"/>
        <path d="M485.123 67.6746C485.123 86.4489 470.035 101.439 450.824 101.439C431.759 101.294 416.817 86.4489 416.817 67.6746C416.817 48.7548 431.808 34.0556 450.824 34.0556C470.035 34.0071 485.123 48.9004 485.123 67.6746ZM430.837 67.8202C430.837 79.7542 439.376 88.729 450.824 88.729C462.273 88.729 470.909 79.6572 470.909 67.8202C470.909 55.7406 462.225 46.8144 450.922 46.6688C439.376 46.7658 430.837 55.6921 430.837 67.8202Z" fill="#7907E6"/>
    </g>
    <defs>
        <linearGradient id="paint0_linear" x1="325.368" y1="140.274" x2="406.068" y2="98.7665" gradientUnits="userSpaceOnUse">
            <stop stop-color="#4CF4CD"/>
            <stop offset="0.3678" stop-color="#47CDDB"/>
            <stop offset="1" stop-color="#3F8DF2"/>
        </linearGradient>
        <clipPath id="clip0">
            <rect width="485.123" height="150" fill="white"/>
        </clipPath>
    </defs>
</svg>
