<svg width="39" height="44" viewBox="0 0 39 44" fill="none" xmlns="http://www.w3.org/2000/svg">
    <path fill-rule="evenodd" clip-rule="evenodd" d="M7.6 9H31.4C32.2837 9 33 9.64287 33 10.4359V42.5641C33 43.3571 32.2836 44 31.4 44H7.6C6.71634 44 6 43.3571 6 42.5641V10.4359C6 9.64286 6.71636 9 7.6 9ZM7.6 10.3462C7.54477 10.3462 7.5 10.3863 7.5 10.4359V42.5641C7.5 42.6137 7.54477 42.6538 7.6 42.6538H31.4C31.4552 42.6538 31.5 42.6137 31.5 42.5641V10.4359C31.5 10.3863 31.4552 10.3462 31.4 10.3462H7.6Z" fill="#616161"/>
    <path d="M17.9139 21.946V14.3206C17.9139 13.8654 17.5485 13.5 17.0933 13.5H10.8206C10.3654 13.5 10 13.8654 10 14.3206V21.946C10 22.4012 10.3654 22.7666 10.8206 22.7666H17.0933C17.5453 22.7666 17.9139 22.4012 17.9139 21.946ZM16.2728 21.1255H11.6411V15.1411H16.2728V21.1255Z" fill="#616161"/>
    <path d="M27.8082 22.7666C28.2633 22.7666 28.6287 22.4012 28.6287 21.946V14.3206C28.6287 13.8654 28.2633 13.5 27.8082 13.5H21.5354C21.0802 13.5 20.7148 13.8654 20.7148 14.3206V21.946C20.7148 22.4012 21.0802 22.7666 21.5354 22.7666H27.8082ZM26.9876 21.1255H22.356V15.1411H26.9876V21.1255Z" fill="#616161"/>
    <path fill-rule="evenodd" clip-rule="evenodd" d="M15.6 25H22.4C23.2837 25 24 25.7163 24 26.6V42.4C24 43.2836 23.2837 44 22.4 44H15.6C14.7163 44 14 43.2837 14 42.4V26.6C14 25.7164 14.7163 25 15.6 25ZM15.6 26.5C15.5448 26.5 15.5 26.5448 15.5 26.6V42.4C15.5 42.4552 15.5448 42.5 15.6 42.5H22.4C22.4552 42.5 22.5 42.4552 22.5 42.4V26.6C22.5 26.5448 22.4552 26.5 22.4 26.5H15.6Z" fill="#616161"/>
    <path d="M19.7409 4.51164L19.3752 4.30743L19.0095 4.51163L3.68408 13.0696C3.68406 13.0696 3.68405 13.0696 3.68403 13.0696C3.2524 13.3106 2.88336 13.3136 2.59066 13.2166C2.28169 13.1142 2.0051 12.8815 1.82402 12.573C1.6427 12.2642 1.58121 11.9212 1.64392 11.6233C1.70267 11.3441 1.88224 11.0425 2.31115 10.8029C2.31118 10.8029 2.31121 10.8029 2.31124 10.8029L18.4006 1.81989C18.4007 1.8198 18.4009 1.81971 18.4011 1.81961C18.9407 1.51942 19.8085 1.51944 20.348 1.81968C20.3482 1.81975 20.3483 1.81982 20.3484 1.81989L36.4377 10.8028C36.4377 10.8028 36.4378 10.8029 36.4378 10.8029C36.8655 11.0419 37.0451 11.3426 37.1043 11.621C37.1674 11.9181 37.107 12.26 36.9272 12.5684C36.7477 12.8764 36.4727 13.1097 36.1648 13.2135C35.8729 13.312 35.5055 13.311 35.0759 13.0751L35.0679 13.0707L35.0597 13.0665L35.0546 13.0639L19.7409 4.51164Z" fill="#fff" stroke="#616161" stroke-width="1.5"/>
</svg>
