<svg width="21" height="21" viewBox="0 0 21 21" fill="none" xmlns="http://www.w3.org/2000/svg">
<path d="M3.0752 3.0752C-1.02507 7.17546 -1.02507 13.8245 3.0752 17.9248C7.17546 22.0251 13.8245 22.0251 17.9248 17.9248C22.0251 13.8245 22.0251 7.17546 17.9248 3.0752C13.8245 -1.02507 7.17546 -1.02507 3.0752 3.0752ZM10.9207 4.40501C11.8072 4.40501 12.5163 5.13659 12.5163 6.02313C12.5163 6.90968 11.7847 7.64125 10.9207 7.64125C10.0341 7.64125 9.30254 6.90968 9.30254 6.0015C9.30341 5.11409 10.0341 4.40504 10.9207 4.40504V4.40501ZM13.2037 15.2426C13.1596 15.3759 13.0704 15.5309 12.9821 15.6192C12.4055 16.2174 11.6964 16.5724 10.854 16.5724C10.4549 16.5724 10.0783 16.5724 9.67919 16.5057C9.0368 16.4174 8.21604 15.6192 8.32686 14.7768C8.41517 14.2002 8.50434 13.6244 8.59265 13.0478C8.77013 12.0505 8.94762 11.0306 9.12422 10.0332C9.12422 9.96649 9.14673 9.89982 9.14673 9.83402C9.14673 9.41327 9.0134 9.25742 8.59264 9.21327C8.41516 9.19076 8.23767 9.16911 8.06107 9.12496C7.86194 9.05829 7.75113 8.8808 7.77276 8.72584C7.79527 8.54835 7.90609 8.43753 8.12773 8.39338C8.23855 8.37087 8.37189 8.37087 8.50434 8.37087H9.98912H11.5631C11.9397 8.37087 12.1613 8.54835 12.1613 8.92496C12.1613 9.2349 12.1172 9.54572 12.0505 9.85566C11.8514 11.008 11.6298 12.1387 11.4298 13.291C11.3631 13.6676 11.2748 14.0442 11.2306 14.4217C11.2081 14.5992 11.2306 14.7983 11.2748 14.9758C11.3414 15.22 11.5189 15.3524 11.7622 15.3308C11.9613 15.3083 12.1613 15.2425 12.3604 15.1533C12.5154 15.0866 12.6487 14.9758 12.8037 14.9317C13.0712 14.8442 13.2704 14.9992 13.2037 15.2425L13.2037 15.2426Z" fill="#6C06B0"/>
</svg>
