<svg width="160" height="50" viewBox="0 0 160 50" fill="none" xmlns="http://www.w3.org/2000/svg">
<path d="M130.064 28.9419C129.056 29.2786 128.464 30.3048 128.656 31.363C128.768 32.0365 128.832 32.726 128.832 33.4315C128.832 39.9734 123.52 45.2968 116.992 45.2968C112.464 45.2968 108.512 42.7313 106.528 38.9633C106.032 38.0333 104.944 37.5843 103.952 37.9211L103.92 37.9371C102.688 38.37 102.112 39.7971 102.72 40.9515C105.472 46.1787 111.008 49.7222 117.344 49.5779C126.016 49.3855 133.04 42.2503 133.104 33.5437C133.104 32.5496 133.024 31.5555 132.864 30.6094C132.64 29.3107 131.312 28.509 130.064 28.9419Z" fill="url(#paint0_linear)"/>
<path d="M0 22.3679C0 16.1627 4.94402 11.2563 11.2641 11.2563C14.9921 11.2563 18.1921 13.0361 19.8401 15.6015C20.1921 16.1306 20.2721 16.4674 20.2721 16.8201C20.2721 17.9906 19.3601 18.9046 18.2401 18.9046C17.6321 18.9046 17.1201 18.7282 16.6401 18.167C15.3761 16.6117 13.6481 15.4732 11.3121 15.4732C7.50403 15.4732 4.64002 18.4235 4.64002 22.384C4.64002 26.4246 7.45603 29.3268 11.3121 29.3268C13.6481 29.3268 15.3441 28.2044 16.6401 26.6811C17.1681 26.0718 17.6321 25.9436 18.2401 25.9436C19.3601 25.9436 20.2721 26.8575 20.2721 27.9799C20.2721 28.3647 20.1921 28.7175 19.8881 29.1504C18.1121 31.796 15.0721 33.5438 11.2641 33.5438C4.94402 33.5277 0 28.6213 0 22.3679Z" fill="white"/>
<path d="M24.864 31.1867V2.3412C24.864 0.994333 25.824 0.000213623 27.168 0.000213623C28.464 0.000213623 29.424 0.994333 29.424 2.3412V31.1707C29.424 32.5175 28.464 33.5116 27.168 33.5116C25.856 33.5277 24.864 32.5336 24.864 31.1867Z" fill="white"/>
<path d="M52.4798 20.1553V31.2349C52.4798 32.5818 51.5198 33.5438 50.2238 33.5438C48.9278 33.5438 47.9678 32.5497 47.9678 31.2349V30.9784C46.3998 32.6299 44.1598 33.5438 41.4238 33.5438C37.0078 33.5438 34.0157 31.0746 34.0157 27.3707C34.0157 23.6347 37.0558 21.2937 41.8558 21.2937H47.8718V19.8827C47.8718 16.9805 46.2238 15.329 43.3278 15.329C41.5518 15.329 39.9518 15.9864 38.6078 17.3333C38.0478 17.8143 37.5678 18.0227 37.0558 18.0227C35.9678 18.0227 35.0558 17.1088 35.0558 16.1147C35.0558 15.4573 35.3598 14.848 35.9678 14.2547C37.7918 12.3466 40.6078 11.2563 43.7278 11.2563C49.2318 11.2403 52.4798 14.5433 52.4798 20.1553ZM47.8878 24.9655V24.5807H42.4318C39.9678 24.5807 38.6558 25.4947 38.6558 27.1783C38.6558 28.91 40.1278 30.0003 42.3838 30.0003C45.4718 30.0003 47.8878 27.7876 47.8878 24.9655Z" fill="white"/>
<path d="M69.9527 13.5972C69.9527 14.8639 69.0407 15.7298 67.7447 15.81C64.2726 15.8901 61.8886 18.2472 61.8886 21.6785V31.1867C61.8886 32.5817 60.9286 33.5277 59.6326 33.5277C58.3366 33.5277 57.3286 32.5336 57.3286 31.1867V13.5972C57.3286 12.2504 58.2886 11.2563 59.6326 11.2563C60.8966 11.2563 61.8406 12.2504 61.8406 13.5972V14.2546C63.2646 12.555 65.3926 11.5128 67.7767 11.5128C69.0407 11.5128 69.9527 12.3786 69.9527 13.5972Z" fill="white"/>
<path d="M79.6168 3.78433C79.6168 5.43585 78.2248 6.73462 76.5768 6.73462C74.8808 6.73462 73.5367 5.43585 73.5367 3.78433C73.5367 2.13281 74.8808 0.834038 76.5768 0.834038C78.2408 0.818004 79.6168 2.13281 79.6168 3.78433ZM74.2887 31.1867V13.5972C74.2887 12.2504 75.2488 11.2563 76.5928 11.2563C77.8888 11.2563 78.8488 12.2504 78.8488 13.5972V31.1867C78.8488 32.5336 77.8568 33.5277 76.5448 33.5277C75.2328 33.5277 74.2887 32.5336 74.2887 31.1867Z" fill="white"/>
<path d="M105.776 2.3412V31.2188C105.776 32.5656 104.784 33.5277 103.52 33.5277C102.224 33.5277 101.264 32.5336 101.264 31.2188V30.3529C99.6963 32.3572 97.1522 33.5277 94.0642 33.5277C88.0802 33.5277 83.6642 28.8297 83.6642 22.416C83.6642 16.0023 88.0802 11.2562 94.0642 11.2562C97.0562 11.2562 99.5682 12.4267 101.168 14.3348V2.3412C101.168 0.994333 102.16 0.000213623 103.472 0.000213623C104.784 0.000213623 105.776 0.962265 105.776 2.3412ZM101.28 22.416C101.28 18.2952 98.6722 15.4251 94.8642 15.4251C91.0882 15.4251 88.3202 18.3754 88.3202 22.3679C88.3202 26.4085 91.0562 29.3588 94.8642 29.3588C98.6722 29.3588 101.28 26.5368 101.28 22.416Z" fill="white"/>
<path d="M132.976 15.4573C132.976 21.6625 128 26.6171 121.664 26.6171C115.376 26.569 110.448 21.6625 110.448 15.4573C110.448 9.20396 115.392 4.34561 121.664 4.34561C127.984 4.34561 132.976 9.25206 132.976 15.4573ZM115.072 15.5054C115.072 19.4498 117.888 22.4161 121.664 22.4161C125.44 22.4161 128.288 19.4177 128.288 15.5054C128.288 11.5129 125.424 8.56259 121.696 8.51449C117.888 8.56259 115.072 11.5129 115.072 15.5054Z" fill="white"/>
<path d="M160 22.368C160 28.5732 155.024 33.5278 148.688 33.5278C142.4 33.4797 137.472 28.5732 137.472 22.368C137.472 16.1147 142.416 11.2563 148.688 11.2563C155.024 11.2403 160 16.1628 160 22.368ZM142.096 22.4161C142.096 26.3605 144.912 29.3268 148.688 29.3268C152.464 29.3268 155.312 26.3284 155.312 22.4161C155.312 18.4236 152.448 15.4733 148.72 15.4252C144.912 15.4572 142.096 18.4075 142.096 22.4161Z" fill="white"/>
<defs>
<linearGradient id="paint0_linear" x1="102.705" y1="49.5822" x2="140.777" y2="36.3013" gradientUnits="userSpaceOnUse">
<stop stop-color="#3F8DF2"/>
<stop offset="1" stop-color="#70DCEB"/>
<stop offset="1" stop-color="#86FFE7"/>
</linearGradient>
</defs>
</svg>
