<svg width="103" height="32" viewBox="0 0 103 32" fill="none" xmlns="http://www.w3.org/2000/svg">
    <g clip-path="url(#clip0)">
        <path d="M83.7287 18.2748C83.0798 18.4874 82.6987 19.1354 82.8223 19.8036C82.8944 20.2288 82.9356 20.6641 82.9356 21.1096C82.9356 25.2402 79.516 28.6015 75.3136 28.6015C72.3987 28.6015 69.8546 26.9816 68.5774 24.6024C68.2581 24.0152 67.5577 23.7317 66.9191 23.9443L66.8985 23.9545C66.1054 24.2278 65.7346 25.1289 66.126 25.8578C67.8976 29.1583 71.4614 31.3957 75.5402 31.3046C81.1228 31.1831 85.6445 26.6779 85.6857 21.1804C85.6857 20.5527 85.6342 19.9251 85.5312 19.3277C85.387 18.5077 84.5321 18.0015 83.7287 18.2748Z" fill="url(#paint0_linear)"/>
        <path d="M0 14.1235C0 10.2054 3.1827 7.10742 7.2512 7.10742C9.6511 7.10742 11.7111 8.2312 12.772 9.85107C12.9986 10.1852 13.0501 10.3978 13.0501 10.6205C13.0501 11.3596 12.463 11.9366 11.742 11.9366C11.3506 11.9366 11.021 11.8253 10.712 11.4709C9.8983 10.4889 8.7859 9.77008 7.2821 9.77008C4.8307 9.77008 2.987 11.6329 2.987 14.1336C2.987 16.6849 4.7998 18.5174 7.2821 18.5174C8.7859 18.5174 9.8777 17.8087 10.712 16.8469C11.0519 16.4621 11.3506 16.3812 11.742 16.3812C12.463 16.3812 13.0501 16.9582 13.0501 17.6669C13.0501 17.9099 12.9986 18.1326 12.8029 18.406C11.6596 20.0765 9.7026 21.18 7.2512 21.18C3.1827 21.1699 0 18.0719 0 14.1235Z" fill="#7907E6"/>
        <path d="M16.0061 19.6915V1.47813C16.0061 0.627698 16.6241 0 17.4893 0C18.3236 0 18.9416 0.627698 18.9416 1.47813V19.6814C18.9416 20.5318 18.3236 21.1595 17.4893 21.1595C16.6447 21.1696 16.0061 20.5419 16.0061 19.6915Z" fill="#7907E6"/>
        <path d="M33.7842 12.7264V19.7222C33.7842 20.5726 33.1662 21.18 32.3319 21.18C31.4976 21.18 30.8795 20.5524 30.8795 19.7222V19.5602C29.8701 20.603 28.4281 21.18 26.6668 21.18C23.824 21.18 21.8979 19.6209 21.8979 17.2822C21.8979 14.9233 23.8549 13.4452 26.945 13.4452H30.8178V12.5543C30.8178 10.7218 29.7568 9.679 27.8925 9.679C26.7492 9.679 25.7192 10.0941 24.854 10.9445C24.4935 11.2482 24.1845 11.3799 23.8549 11.3799C23.1545 11.3799 22.5674 10.8028 22.5674 10.1751C22.5674 9.75999 22.7631 9.37527 23.1545 9.00068C24.3287 7.7959 26.1415 7.10746 28.15 7.10746C31.6932 7.09733 33.7842 9.18291 33.7842 12.7264ZM30.828 15.7636V15.5206H27.3158C25.7296 15.5206 24.8849 16.0977 24.8849 17.1608C24.8849 18.2542 25.8325 18.9426 27.2848 18.9426C29.2727 18.9426 30.828 17.5455 30.828 15.7636Z" fill="#7907E6"/>
        <path d="M45.0315 8.58555C45.0315 9.38536 44.4444 9.93206 43.6101 9.98268C41.375 10.0333 39.8403 11.5216 39.8403 13.6881V19.6918C39.8403 20.5726 39.2223 21.1699 38.388 21.1699C37.5537 21.1699 36.9048 20.5422 36.9048 19.6918V8.58555C36.9048 7.73512 37.5228 7.10742 38.388 7.10742C39.2017 7.10742 39.8094 7.73512 39.8094 8.58555V9.00064C40.7261 7.92748 42.096 7.26941 43.6307 7.26941C44.4444 7.26941 45.0315 7.81611 45.0315 8.58555Z" fill="#7907E6"/>
        <path d="M51.2526 2.38931C51.2526 3.43209 50.3565 4.25215 49.2956 4.25215C48.2038 4.25215 47.3386 3.43209 47.3386 2.38931C47.3386 1.34652 48.2038 0.526459 49.2956 0.526459C50.3668 0.516335 51.2526 1.34652 51.2526 2.38931ZM47.8227 19.6915V8.58529C47.8227 7.73486 48.4407 7.10717 49.3059 7.10717C50.1402 7.10717 50.7582 7.73486 50.7582 8.58529V19.6915C50.7582 20.5419 50.1196 21.1696 49.275 21.1696C48.4304 21.1696 47.8227 20.5419 47.8227 19.6915Z" fill="#7907E6"/>
        <path d="M68.0935 1.47813V19.7118C68.0935 20.5622 67.4549 21.1696 66.6412 21.1696C65.8069 21.1696 65.1889 20.5419 65.1889 19.7118V19.165C64.1795 20.4306 62.5418 21.1696 60.5539 21.1696C56.7017 21.1696 53.8589 18.2033 53.8589 14.1536C53.8589 10.1039 56.7017 7.10716 60.5539 7.10716C62.48 7.10716 64.0971 7.84623 65.1271 9.051V1.47813C65.1271 0.627698 65.7657 0 66.6103 0C67.4549 0 68.0935 0.60745 68.0935 1.47813ZM65.1992 14.1536C65.1992 11.5517 63.5203 9.73945 61.0689 9.73945C58.6381 9.73945 56.8562 11.6023 56.8562 14.1232C56.8562 16.6745 58.6175 18.5373 61.0689 18.5373C63.5203 18.5373 65.1992 16.7555 65.1992 14.1536Z" fill="#7907E6"/>
        <path d="M85.6032 9.76019C85.6032 13.6782 82.3999 16.8066 78.3211 16.8066C74.2732 16.7762 71.1008 13.6782 71.1008 9.76019C71.1008 5.81176 74.2835 2.74414 78.3211 2.74414C82.3896 2.74414 85.6032 5.84214 85.6032 9.76019ZM74.0775 9.79056C74.0775 12.2811 75.8903 14.1541 78.3211 14.1541C80.7519 14.1541 82.5853 12.2609 82.5853 9.79056C82.5853 7.26964 80.7416 5.4068 78.3417 5.37642C75.8903 5.4068 74.0775 7.26964 74.0775 9.79056Z" fill="#7907E6"/>
        <path d="M103 14.1225C103 18.0406 99.7967 21.1689 95.7179 21.1689C91.67 21.1386 88.4976 18.0406 88.4976 14.1225C88.4976 10.1741 91.6803 7.10647 95.7179 7.10647C99.7967 7.09635 103 10.2045 103 14.1225ZM91.4743 14.1529C91.4743 16.6434 93.2871 18.5164 95.7179 18.5164C98.1487 18.5164 99.9821 16.6232 99.9821 14.1529C99.9821 11.632 98.1384 9.76913 95.7385 9.73875C93.2871 9.759 91.4743 11.6218 91.4743 14.1529Z" fill="#7907E6"/>
    </g>
    <defs>
        <linearGradient id="paint0_linear" x1="69.0813" y1="29.2748" x2="86.0907" y2="20.3743" gradientUnits="userSpaceOnUse">
            <stop stop-color="#4CF4CD"/>
            <stop offset="0.3678" stop-color="#47CDDB"/>
            <stop offset="1" stop-color="#3F8DF2"/>
        </linearGradient>
        <clipPath id="clip0">
            <rect width="103" height="31.3039" fill="white"/>
        </clipPath>
    </defs>
</svg>
