<svg width="23" height="23" viewBox="0 0 23 23" fill="none" xmlns="http://www.w3.org/2000/svg">
    <path d="M1.10071 23C1.1985 23 1.29629 22.9869 1.39409 22.9607L7.93975 21.1472C8.37657 21.0293 8.78078 20.7936 9.10024 20.4728L21.7874 7.73214C23.4042 6.10845 23.4042 3.46997 21.7874 1.84628L21.1615 1.21776C19.5446 -0.405921 16.9172 -0.405921 15.3004 1.21776L2.60673 13.9715C2.30031 14.2792 2.07213 14.6655 1.94825 15.0911L0.0445336 21.5727C-0.0662994 21.959 0.0314947 22.378 0.318357 22.6661C0.520464 22.8822 0.807326 23 1.10071 23ZM3.67594 17.0618L5.98388 19.3794L2.7306 20.2829L3.67594 17.0618ZM8.08318 18.3385L4.73864 14.9798L11.845 7.84344L15.1895 11.2021L8.08318 18.3385ZM13.4097 6.27213L14.4202 5.25733L17.7648 8.616L16.7542 9.6308L13.4097 6.27213ZM18.2342 2.22602C18.7492 2.22602 19.2317 2.42898 19.5968 2.79562L20.2227 3.42414C20.9724 4.17706 20.9724 5.40791 20.2227 6.16083L19.336 7.05124L15.9914 3.69257L16.8781 2.80216C17.2367 2.42898 17.7191 2.22602 18.2342 2.22602Z" fill="#7907E7"/>
</svg>
