<svg width="257" height="257" viewBox="0 0 257 257" fill="none" xmlns="http://www.w3.org/2000/svg">
    <path fill-rule="evenodd" clip-rule="evenodd" d="M138.413 183.768C145.179 190.534 156.149 190.534 162.915 183.768L244.242 102.441C251.009 95.6749 251.009 84.7048 244.242 77.9387C237.476 71.1725 226.506 71.1725 219.74 77.9387L138.413 159.266C131.647 166.032 131.647 177.002 138.413 183.768ZM45.6161 211.92C52.3823 218.686 63.3524 218.686 70.1185 211.92L165.521 116.517C172.288 109.751 172.288 98.7809 165.521 92.0147C158.755 85.2486 147.785 85.2486 141.019 92.0147L45.6161 187.418C38.8499 194.184 38.8499 205.154 45.6161 211.92ZM114.953 100.356C108.187 107.122 97.2168 107.122 90.4507 100.356C83.6845 93.5898 83.6845 82.6197 90.4507 75.8536L135.806 30.498C142.572 23.7319 153.542 23.7319 160.309 30.498C167.075 37.2642 167.075 48.2343 160.309 55.0004L114.953 100.356ZM80.0241 110.782C73.258 104.016 62.2879 104.016 55.5217 110.782C48.7556 117.548 48.7556 128.518 55.5217 135.284C62.2879 142.051 73.258 142.051 80.0242 135.284C86.7903 128.518 86.7903 117.548 80.0241 110.782Z" fill="url(#paint0_linear)"/>
    <defs>
        <linearGradient id="paint0_linear" x1="-5.89825" y1="202.749" x2="180.631" y2="18.4318" gradientUnits="userSpaceOnUse">
            <stop stop-color="#02E8B3"/>
            <stop offset="0.640625" stop-color="#5748D8"/>
            <stop offset="1" stop-color="#7907E7"/>
        </linearGradient>
    </defs>
</svg>
